<svg width="24" height="24" viewBox="0 0 15 13" xmlns="http://www.w3.org/2000/svg">
<path fill-rule="evenodd" clip-rule="evenodd" d="M7.08 0.222C7.19216 0.112064 7.34295 0.0504856 7.5 0.0504856C7.65705 0.0504856 7.80784 0.112064 7.92 0.222L14.67 6.862C14.7773 6.97469 14.8366 7.12466 14.8354 7.28025C14.8342 7.43585 14.7727 7.5849 14.6637 7.69596C14.5547 7.80701 14.4068 7.87139 14.2513 7.8755C14.0958 7.87962 13.9447 7.82314 13.83 7.718L13 6.902V12.5C13 12.6326 12.9473 12.7598 12.8536 12.8536C12.7598 12.9473 12.6326 13 12.5 13H2.5C2.36739 13 2.24021 12.9473 2.14645 12.8536C2.05268 12.7598 2 12.6326 2 12.5V6.902L1.17 7.718C1.11449 7.77631 1.04781 7.82285 0.973928 7.85485C0.900051 7.88685 0.82049 7.90366 0.739982 7.90427C0.659474 7.90488 0.579667 7.88928 0.505315 7.8584C0.430962 7.82752 0.363584 7.78199 0.307195 7.72453C0.250805 7.66706 0.206557 7.59884 0.177086 7.52392C0.147615 7.449 0.133524 7.36891 0.135652 7.28843C0.13778 7.20795 0.156083 7.12871 0.189472 7.05545C0.222861 6.98219 0.270653 6.9164 0.33 6.862L7.08 0.222ZM7.5 1.492L12 5.918V12H10V8.5C10 8.36739 9.94732 8.24021 9.85355 8.14645C9.75979 8.05268 9.63261 8 9.5 8H6.5C6.36739 8 6.24021 8.05268 6.14645 8.14645C6.05268 8.24021 6 8.36739 6 8.5V12H3V5.918L7.5 1.492ZM7 12H9V9H7V12Z" />
</svg>
